<svg width="37" height="37" viewBox="0 0 37 37" fill="none" xmlns="http://www.w3.org/2000/svg">
<path d="M36.4464 22.9752C33.9756 32.8861 23.9376 38.9176 14.0256 36.4461C4.11777 33.9753 -1.91376 23.9367 0.558137 14.0267C3.02786 4.11475 13.0659 -1.91723 22.9748 0.553583C32.8861 3.02439 38.9173 13.0642 36.4462 22.9754L36.4464 22.9752H36.4464Z" fill="#F7931A"/>
<path fill-rule="evenodd" clip-rule="evenodd" d="M26.6598 15.8644C27.028 13.4024 25.1536 12.0791 22.5906 11.1962L23.4221 7.8613L21.392 7.35545L20.5826 10.6026C20.0489 10.4695 19.5008 10.344 18.9561 10.2197L19.7714 6.95116L17.7426 6.44531L16.9107 9.77915C16.469 9.6786 16.0352 9.57922 15.6144 9.4745L15.6167 9.46401L12.8172 8.76493L12.2772 10.9332C12.2772 10.9332 13.7834 11.2784 13.7516 11.2997C14.5737 11.5048 14.7223 12.049 14.6977 12.4804L13.7505 16.2796C13.8071 16.294 13.8806 16.3148 13.9616 16.3474L13.9026 16.3326C13.8525 16.3201 13.8004 16.3071 13.747 16.2943L12.4195 21.6165C12.319 21.8663 12.064 22.2411 11.4892 22.0987C11.5096 22.1282 10.0138 21.7305 10.0138 21.7305L9.00586 24.0543L11.6477 24.7129C11.937 24.7854 12.2228 24.8599 12.5058 24.9337L12.5064 24.9339C12.704 24.9854 12.9001 25.0365 13.095 25.0863L12.255 28.4595L14.2827 28.9654L15.1146 25.628C15.6686 25.7784 16.2061 25.9171 16.7324 26.0478L15.9033 29.3695L17.9335 29.8753L18.7734 26.5085C22.2351 27.1636 24.8381 26.8995 25.9337 23.7684C26.8165 21.2475 25.8897 19.7934 24.0685 18.8452C25.395 18.5393 26.3941 17.6669 26.6605 15.8647L26.6599 15.8642L26.6598 15.8644ZM22.0215 22.3684C21.4459 24.6813 17.8257 23.7251 16.1693 23.2876C16.0203 23.2482 15.8872 23.2131 15.7736 23.1849L16.8884 18.716C17.0268 18.7505 17.196 18.7885 17.3876 18.8315C19.1009 19.216 22.6113 20.0038 22.0216 22.3684H22.0215ZM17.7313 16.7574C19.1122 17.126 22.1247 17.93 22.6494 15.8279H22.6496C23.1853 13.6779 20.2576 13.0298 18.8278 12.7132C18.6669 12.6776 18.525 12.6462 18.4091 12.6173L17.3984 16.6703C17.4938 16.6941 17.6058 16.7239 17.7313 16.7574Z" fill="white"/>
</svg>
