<svg width="96" height="99" viewBox="0 0 96 99" fill="none" xmlns="http://www.w3.org/2000/svg">
<path d="M93.1568 65.8371L59.9738 95.8819C58.5093 97.2079 56.2459 97.0946 54.9184 95.6284L2.41788 37.644C1.09044 36.1779 1.2018 33.9144 2.66632 32.5884L35.8494 2.54364C37.3142 1.21734 39.5773 1.33098 40.9047 2.79709L93.4052 60.7815C94.7327 62.2476 94.6217 64.5108 93.1568 65.8371Z" fill="#26A9E1"/>
<path d="M93.1571 65.8361L59.974 95.8809C58.5095 97.2069 56.2461 97.0936 54.9186 95.6274L9.96105 45.9739C24.0548 39.4018 39.703 39.9689 52.5699 51.4455C62.8423 60.6079 79.5983 62.7645 88.7062 55.5904L93.4054 60.7805C94.7329 62.2467 94.6219 64.5098 93.1571 65.8361Z" fill="#A8DDF3"/>
<path d="M68.6077 88.0657L11.2855 24.7559L6.79813 28.8188L64.1204 92.1286L68.6077 88.0657Z" fill="#2C3790"/>
<path d="M81.9067 47.8003L77.6081 43.0527L39.0199 77.9915L43.3184 82.739L81.9067 47.8003Z" fill="#2C3790"/>
<path d="M75.0561 66.2462C75.0041 67.3027 74.1056 68.1162 73.0492 68.0633C71.9928 68.0104 71.1786 67.1111 71.2305 66.0547C71.2825 64.9983 72.181 64.1847 73.2374 64.2376C74.2938 64.2905 75.108 65.1898 75.0561 66.2462Z" fill="#26A9E1"/>
<path d="M23.0121 55.8508C23.638 55.3095 23.7061 54.3628 23.1643 53.7363C22.6224 53.1099 21.6758 53.0409 21.0499 53.5823C20.4239 54.1236 20.3558 55.0703 20.8976 55.6968C21.4395 56.3232 22.3862 56.3922 23.0121 55.8508Z" fill="#26A9E1"/>
<path d="M21.6439 50.2802C21.2185 50.6653 20.5612 50.6325 20.1757 50.2067C19.7902 49.781 19.8226 49.1235 20.2479 48.7384C20.6733 48.3533 21.3306 48.3862 21.7161 48.8119C22.1016 49.2377 22.0693 49.895 21.6439 50.2802Z" fill="#26A9E1"/>
<path d="M40.3731 49.8678C40.9814 49.4738 41.1547 48.6609 40.7602 48.0522C40.3657 47.4436 39.5528 47.2695 38.9445 47.6635C38.3362 48.0575 38.1629 48.8704 38.5574 49.4791C38.9519 50.0878 39.7648 50.2618 40.3731 49.8678Z" fill="#26A9E1"/>
<path d="M41.8745 49.4982C41.4954 49.0795 41.5274 48.4308 41.9457 48.0521C42.364 47.6733 43.0126 47.7058 43.3917 48.1245C43.7708 48.5431 43.7388 49.1918 43.3205 49.5705C42.9022 49.9493 42.2535 49.9168 41.8745 49.4982ZM43.0962 48.392C42.8648 48.1365 42.4688 48.1167 42.2135 48.3478C41.9582 48.5791 41.9387 48.975 42.1701 49.2305C42.4015 49.4861 42.7974 49.5059 43.0527 49.2747C43.3081 49.0436 43.3276 48.6476 43.0962 48.392Z" fill="#26A9E1"/>
<path d="M38.5149 63.846L34.5591 59.4771C35.8254 57.105 38.226 55.5422 38.8299 55.175L42.8684 59.6353L38.5149 63.846Z" fill="#1A2156"/>
<path d="M61.7455 89.5046L58.8804 86.3403L64.2494 83.2511L66.3205 85.5385C65.0768 86.7893 63.6684 88.5275 61.7455 89.5046Z" fill="#1A2156"/>
<path d="M87.3127 66.7939C86.7325 66.1532 86.7814 65.1603 87.4216 64.5806C88.0619 64.0009 89.0547 64.0506 89.6349 64.6914C90.2151 65.3322 90.1663 66.3251 89.526 66.9048C88.8858 67.4844 87.8929 67.4347 87.3127 66.7939ZM89.1825 65.101C88.8284 64.7099 88.2224 64.6795 87.8316 65.0334C87.4408 65.3872 87.411 65.9932 87.7651 66.3843C88.1193 66.7755 88.7253 66.8058 89.1161 66.452C89.5068 66.0982 89.5366 65.4921 89.1825 65.101Z" fill="#26A9E1"/>
<path d="M79.049 65.9584C78.5587 66.4024 77.8009 66.3645 77.3565 65.8737C76.9121 65.3828 76.9493 64.625 77.4397 64.181C77.9302 63.7369 78.688 63.7748 79.1324 64.2657C79.5768 64.7565 79.5396 65.5143 79.049 65.9584Z" fill="#26A9E1"/>
<path d="M66.5413 71.2779C66.2084 71.5793 65.6939 71.5536 65.3922 71.2203C65.0905 70.8871 65.1158 70.3726 65.4487 70.0712C65.7816 69.7698 66.2961 69.7955 66.5978 70.1287C66.8995 70.462 66.8742 70.9765 66.5413 71.2779Z" fill="#26A9E1"/>
<path d="M51.0248 75.7613L48.3905 78.1465C48.3895 78.1453 48.388 78.1445 48.3869 78.1433C46.8501 76.8418 44.623 74.1508 44.0445 73.4418L46.4149 71.2956L51.0248 75.7613Z" fill="#51BAE7"/>
<path d="M55.9397 71.3129L53.7969 73.253L49.9777 68.0714L51.7183 66.4955C52.2832 66.9478 54.46 68.782 55.9397 71.3129Z" fill="#51BAE7"/>
<path d="M56.5531 88.4118C55.8451 88.7987 53.8283 86.4741 52.0483 83.2198C50.2684 79.9654 49.3995 77.0136 50.1075 76.6267C50.8155 76.2398 52.8324 78.5644 54.6123 81.8188C56.3922 85.0731 57.2612 88.0249 56.5531 88.4118Z" fill="#232C73"/>
<path d="M56.5536 88.4116C56.5536 88.4116 66.802 85.4162 66.6524 77.8614C63.7343 76.4232 54.391 72.3787 54.391 72.3787L50.108 76.6265L56.5536 88.4116Z" fill="#232C73"/>
<path d="M66.652 77.8603C66.3231 78.5971 63.3116 77.9671 59.9257 76.4531C56.5398 74.9392 54.0617 73.1145 54.3906 72.3776C54.7195 71.6408 57.7309 72.2707 61.1168 73.7848C64.5027 75.2988 66.9808 77.1235 66.652 77.8603Z" fill="#2C3790"/>
<path d="M34.635 64.2033C34.1799 64.8696 36.2934 67.1067 39.3554 69.2002C42.4176 71.2936 45.2689 72.4506 45.7239 71.7844C46.179 71.1181 44.0657 68.881 41.0035 66.7875C37.9414 64.6941 35.0902 63.5371 34.635 64.2033Z" fill="#232C73"/>
<path d="M34.6358 64.2039C34.6358 64.2039 38.6313 54.3025 46.1342 55.1995C47.2764 58.2458 50.3757 67.9436 50.3757 67.9436L45.7246 71.785L34.6358 64.2039Z" fill="#232C73"/>
<path d="M46.1337 55.2001C45.3679 55.4544 45.6966 58.5134 46.8679 62.0326C48.0391 65.5518 49.6094 68.1985 50.3752 67.9442C51.141 67.6898 50.8123 64.6308 49.641 61.1116C48.4697 57.5924 46.8994 54.9457 46.1337 55.2001Z" fill="#2C3790"/>
<path d="M48.793 76.5758L45.6119 73.0625C45.1758 72.5808 45.2124 71.8371 45.6937 71.4013L49.3985 68.0469C49.8798 67.6111 50.6235 67.6483 51.0597 68.13L54.2407 71.6433C54.6769 72.125 54.6403 72.8688 54.159 73.3046L50.4542 76.659C49.9729 77.0948 49.2291 77.0576 48.793 76.5758Z" fill="#232C73"/>
<path d="M52.4739 75.5954C52.4739 75.5954 55.4099 79.5932 58.2105 81.0388C56.8988 81.169 54.2946 79.0479 53.7193 78.1379C54.253 79.8942 56.8005 84.4927 59.0962 85.5867C56.1003 84.1314 52.1461 78.9403 52.4739 75.5954Z" fill="#2C3790"/>
<path d="M53.1236 74.9615C55.0324 74.6671 60.2614 77.1019 61.8285 82.0557C60.5794 80.266 56.1896 76.0622 53.1236 74.9615Z" fill="#2C3790"/>
<path d="M47.1407 69.7068C47.1407 69.7068 43.4532 66.3893 42.2921 63.4593C42.0326 64.7517 43.8854 67.5531 44.7339 68.2156C43.0391 67.5107 38.7155 64.5204 37.8542 62.1276C39.0058 65.2529 43.7797 69.7017 47.1407 69.7068Z" fill="#2C3790"/>
<path d="M47.8375 69.1226C48.3195 67.2523 46.4145 61.8079 41.6402 59.758C43.2975 61.1782 47.0458 65.9626 47.8375 69.1226Z" fill="#2C3790"/>
<path d="M45.9671 55.25C45.5864 59.6119 47.9169 63.8515 49.7084 67.7028C47.2088 64.5151 44.6359 59.3363 45.9671 55.25Z" fill="#1A2156"/>
<path d="M54.376 72.8726C57.8315 75.626 62.0221 77.552 66.41 78.1829C61.9062 78.4561 57.2444 76.3132 54.376 72.8726Z" fill="#1A2156"/>
<path d="M50.532 67.7523C49.7886 67.2852 47.5455 68.9553 46.6891 70.7976C45.8326 72.6399 49.7593 68.86 50.6659 68.9937C51.5724 69.1275 51.9538 70.3542 51.684 71.0477C51.4143 71.7411 52.5347 71.1198 53.077 71.471C53.6194 71.8221 52.0713 73.9538 50.788 74.8911C49.5048 75.8283 53.1538 74.5733 54.121 73.4731C55.0882 72.3727 54.4457 71.7708 53.1348 70.2957C51.8879 68.8923 51.2902 68.2286 50.532 67.7523Z" fill="#1A2156"/>
</svg>
