<svg width="37" height="37" viewBox="0 0 37 37" fill="none" xmlns="http://www.w3.org/2000/svg">
<path d="M36.4424 22.9752C33.9715 32.8861 23.9335 38.9176 14.0215 36.4461C4.11368 33.9753 -1.91785 23.9367 0.554048 14.0267C3.02377 4.11475 13.0618 -1.91723 22.9707 0.553583C32.882 3.02439 38.9132 13.0642 36.4421 22.9754L36.4423 22.9752H36.4424Z" fill="#50AF95"/>
<path fill-rule="evenodd" clip-rule="evenodd" d="M20.841 20.5974C20.7102 20.6072 20.0343 20.6475 18.5267 20.6475C17.3276 20.6475 16.4762 20.6116 16.1775 20.5974C11.5435 20.3935 8.08466 19.5869 8.08466 18.621C8.08466 17.6552 11.5435 16.8496 16.1775 16.6425V19.794C16.4806 19.8158 17.3483 19.867 18.5474 19.867C19.9863 19.867 20.7069 19.8071 20.8366 19.7951V16.6447C25.4608 16.8507 28.9121 17.6574 28.9121 18.621C28.9121 19.5847 25.4619 20.3914 20.8366 20.5963L20.841 20.5974ZM20.841 16.3188V13.4987H27.2944V9.19824H9.72417V13.4987H16.1765V16.3177C10.932 16.5586 6.98802 17.5974 6.98802 18.8423C6.98802 20.0872 10.932 21.125 16.1765 21.367V30.4039H20.8399V21.3637C26.0724 21.1228 30.0098 20.085 30.0098 18.8412C30.0098 17.5974 26.0756 16.5597 20.8399 16.3177L20.841 16.3188Z" fill="white"/>
</svg>
