<svg width="38" height="37" viewBox="0 0 38 37" fill="none" xmlns="http://www.w3.org/2000/svg">
<path fill-rule="evenodd" clip-rule="evenodd" d="M18.6225 37C8.44745 37 0.122452 28.6752 0.122452 18.4079C0.214952 8.23309 8.44745 -0.0917347 18.715 0.00076344C28.89 0.0932615 37.1225 8.32559 37.1225 18.6854C37.03 28.7677 28.7975 37 18.6225 37Z" fill="#FC070C"/>
<path fill-rule="evenodd" clip-rule="evenodd" d="M31.8036 14.5859C31.2987 14.1197 30.7134 13.5514 30.1034 12.9591L30.1034 12.9591L30.1032 12.9589C29.2465 12.1271 28.3412 11.2482 27.5423 10.539L27.4613 10.4824C27.3267 10.3742 27.1748 10.2894 27.0121 10.2315L26.3954 10.1164L26.3954 10.1164C22.1403 9.32246 8.34844 6.74904 8.06473 6.78355C7.98081 6.7953 7.9006 6.82572 7.83001 6.87258L7.75312 6.93328C7.65844 7.02943 7.58653 7.1456 7.54268 7.27322L7.52245 7.32583V7.61315V7.65767C8.45881 10.265 10.8912 16.0879 13.1372 21.4643L13.1372 21.4644C15.036 26.0098 16.8015 30.2362 17.417 31.9307L17.4173 31.9315C17.4982 32.1826 17.652 32.6592 17.9391 32.6835H18.0038C18.1576 32.6835 18.8132 31.8174 18.8132 31.8174C18.8132 31.8174 30.5329 17.6049 31.7186 16.0913C31.8721 15.9049 32.0076 15.7044 32.1233 15.4924C32.1834 15.155 32.062 14.8109 31.8036 14.5859ZM21.82 16.2411L26.8219 12.0931L29.7559 14.7964L21.82 16.2411ZM11.2658 8.91222L19.8775 15.9699L25.1991 11.482L11.2658 8.91222ZM20.6545 17.8194L29.4686 16.3989L19.3919 28.5395L20.6545 17.8194ZM19.1572 17.3054L10.0962 9.61636L17.846 28.5476L19.1572 17.3054Z" fill="white"/>
</svg>
